<mxfile host="app.diagrams.net" agent="Mozilla/5.0 (Macintosh; Intel Mac OS X 10_15_7) AppleWebKit/537.36 (KHTML, like Gecko) Chrome/133.0.0.0 Safari/537.36" version="26.0.15">
  <diagram name="Page-1" id="qU4_uSaYVtg8SpXWaZtY">
    <mxGraphModel dx="2074" dy="1047" grid="1" gridSize="10" guides="1" tooltips="1" connect="1" arrows="1" fold="1" page="1" pageScale="1" pageWidth="850" pageHeight="1100" math="0" shadow="0">
      <root>
        <mxCell id="0" />
        <mxCell id="1" parent="0" />
        <mxCell id="Y_ei04VsI1s3eIdMdrZa-6" value="" style="edgeStyle=orthogonalEdgeStyle;rounded=0;orthogonalLoop=1;jettySize=auto;html=1;" edge="1" parent="1" source="Y_ei04VsI1s3eIdMdrZa-1">
          <mxGeometry relative="1" as="geometry">
            <mxPoint x="340" y="365" as="targetPoint" />
          </mxGeometry>
        </mxCell>
        <mxCell id="Y_ei04VsI1s3eIdMdrZa-1" value="" style="verticalLabelPosition=bottom;html=1;verticalAlign=top;align=center;strokeColor=none;fillColor=#00BEF2;shape=mxgraph.azure.git_repository;" vertex="1" parent="1">
          <mxGeometry x="230" y="340" width="50" height="50" as="geometry" />
        </mxCell>
        <mxCell id="Y_ei04VsI1s3eIdMdrZa-16" style="edgeStyle=orthogonalEdgeStyle;rounded=0;orthogonalLoop=1;jettySize=auto;html=1;" edge="1" parent="1" source="Y_ei04VsI1s3eIdMdrZa-7">
          <mxGeometry relative="1" as="geometry">
            <mxPoint x="460" y="368" as="targetPoint" />
          </mxGeometry>
        </mxCell>
        <mxCell id="Y_ei04VsI1s3eIdMdrZa-7" value="" style="verticalLabelPosition=bottom;html=1;verticalAlign=top;align=center;strokeColor=none;fillColor=#00BEF2;shape=mxgraph.azure.github_code;pointerEvents=1;" vertex="1" parent="1">
          <mxGeometry x="340" y="343" width="50" height="50" as="geometry" />
        </mxCell>
        <mxCell id="Y_ei04VsI1s3eIdMdrZa-9" value="" style="edgeStyle=orthogonalEdgeStyle;rounded=0;orthogonalLoop=1;jettySize=auto;html=1;" edge="1" parent="1" source="Y_ei04VsI1s3eIdMdrZa-8" target="Y_ei04VsI1s3eIdMdrZa-1">
          <mxGeometry relative="1" as="geometry" />
        </mxCell>
        <mxCell id="Y_ei04VsI1s3eIdMdrZa-8" value="" style="verticalLabelPosition=bottom;html=1;verticalAlign=top;align=center;strokeColor=none;fillColor=#00BEF2;shape=mxgraph.azure.computer;pointerEvents=1;" vertex="1" parent="1">
          <mxGeometry x="120" y="343" width="50" height="45" as="geometry" />
        </mxCell>
        <mxCell id="Y_ei04VsI1s3eIdMdrZa-10" value="Local" style="text;html=1;align=center;verticalAlign=middle;whiteSpace=wrap;rounded=0;" vertex="1" parent="1">
          <mxGeometry x="115" y="400" width="60" height="30" as="geometry" />
        </mxCell>
        <mxCell id="Y_ei04VsI1s3eIdMdrZa-11" value="Git repository" style="text;html=1;align=center;verticalAlign=middle;whiteSpace=wrap;rounded=0;" vertex="1" parent="1">
          <mxGeometry x="225" y="400" width="60" height="30" as="geometry" />
        </mxCell>
        <mxCell id="Y_ei04VsI1s3eIdMdrZa-13" value="GitH&lt;span style=&quot;background-color: transparent; color: light-dark(rgb(0, 0, 0), rgb(255, 255, 255));&quot;&gt;ub&lt;/span&gt;" style="text;html=1;align=center;verticalAlign=middle;whiteSpace=wrap;rounded=0;" vertex="1" parent="1">
          <mxGeometry x="335" y="400" width="60" height="30" as="geometry" />
        </mxCell>
        <mxCell id="Y_ei04VsI1s3eIdMdrZa-15" value="" style="sketch=0;outlineConnect=0;fontColor=#232F3E;gradientColor=none;fillColor=#232F3D;strokeColor=none;dashed=0;verticalLabelPosition=bottom;verticalAlign=top;align=center;html=1;fontSize=12;fontStyle=0;aspect=fixed;pointerEvents=1;shape=mxgraph.aws4.git_repository;" vertex="1" parent="1">
          <mxGeometry x="470" y="329" width="60" height="78" as="geometry" />
        </mxCell>
        <mxCell id="Y_ei04VsI1s3eIdMdrZa-18" style="edgeStyle=orthogonalEdgeStyle;rounded=0;orthogonalLoop=1;jettySize=auto;html=1;" edge="1" parent="1" source="Y_ei04VsI1s3eIdMdrZa-17">
          <mxGeometry relative="1" as="geometry">
            <mxPoint x="510" y="500" as="targetPoint" />
          </mxGeometry>
        </mxCell>
        <mxCell id="Y_ei04VsI1s3eIdMdrZa-17" value="GitHub Action" style="text;html=1;align=center;verticalAlign=middle;whiteSpace=wrap;rounded=0;" vertex="1" parent="1">
          <mxGeometry x="480" y="407" width="60" height="30" as="geometry" />
        </mxCell>
        <mxCell id="Y_ei04VsI1s3eIdMdrZa-36" style="edgeStyle=orthogonalEdgeStyle;rounded=0;orthogonalLoop=1;jettySize=auto;html=1;" edge="1" parent="1" source="Y_ei04VsI1s3eIdMdrZa-20">
          <mxGeometry relative="1" as="geometry">
            <mxPoint x="310" y="620" as="targetPoint" />
          </mxGeometry>
        </mxCell>
        <mxCell id="Y_ei04VsI1s3eIdMdrZa-20" value="AWS Cloud" style="swimlane;whiteSpace=wrap;html=1;" vertex="1" parent="1">
          <mxGeometry x="420" y="520" width="200" height="200" as="geometry" />
        </mxCell>
        <mxCell id="Y_ei04VsI1s3eIdMdrZa-19" value="" style="outlineConnect=0;dashed=0;verticalLabelPosition=bottom;verticalAlign=top;align=center;html=1;shape=mxgraph.aws3.s3;fillColor=#E05243;gradientColor=none;" vertex="1" parent="Y_ei04VsI1s3eIdMdrZa-20">
          <mxGeometry x="10" y="53.5" width="80" height="80" as="geometry" />
        </mxCell>
        <mxCell id="Y_ei04VsI1s3eIdMdrZa-22" value="" style="outlineConnect=0;dashed=0;verticalLabelPosition=bottom;verticalAlign=top;align=center;html=1;shape=mxgraph.aws3.cloudfront;fillColor=#F58536;gradientColor=none;" vertex="1" parent="Y_ei04VsI1s3eIdMdrZa-20">
          <mxGeometry x="110" y="47" width="76.5" height="93" as="geometry" />
        </mxCell>
        <mxCell id="Y_ei04VsI1s3eIdMdrZa-23" value="S3" style="text;html=1;align=center;verticalAlign=middle;whiteSpace=wrap;rounded=0;" vertex="1" parent="Y_ei04VsI1s3eIdMdrZa-20">
          <mxGeometry x="20" y="150" width="60" height="30" as="geometry" />
        </mxCell>
        <mxCell id="Y_ei04VsI1s3eIdMdrZa-24" value="Cloud Front" style="text;html=1;align=center;verticalAlign=middle;whiteSpace=wrap;rounded=0;" vertex="1" parent="Y_ei04VsI1s3eIdMdrZa-20">
          <mxGeometry x="118.25" y="150" width="60" height="30" as="geometry" />
        </mxCell>
        <mxCell id="Y_ei04VsI1s3eIdMdrZa-26" value="요청 / 응답" style="text;html=1;align=center;verticalAlign=middle;whiteSpace=wrap;rounded=0;" vertex="1" parent="1">
          <mxGeometry x="335" y="630" width="60" height="30" as="geometry" />
        </mxCell>
        <mxCell id="Y_ei04VsI1s3eIdMdrZa-28" value="" style="sketch=0;pointerEvents=1;shadow=0;dashed=0;html=1;strokeColor=none;fillColor=#434445;aspect=fixed;labelPosition=center;verticalLabelPosition=bottom;verticalAlign=top;align=center;outlineConnect=0;shape=mxgraph.vvd.web_browser;" vertex="1" parent="1">
          <mxGeometry x="400" y="520" width="50" height="35.5" as="geometry" />
        </mxCell>
        <mxCell id="Y_ei04VsI1s3eIdMdrZa-32" value="" style="image;aspect=fixed;html=1;points=[];align=center;fontSize=12;image=img/lib/azure2/general/Browser.svg;" vertex="1" parent="1">
          <mxGeometry x="135" y="530" width="150" height="120" as="geometry" />
        </mxCell>
        <mxCell id="Y_ei04VsI1s3eIdMdrZa-33" value="User" style="html=1;whiteSpace=wrap;strokeColor=none;fillColor=#0079D6;labelPosition=center;verticalLabelPosition=middle;verticalAlign=top;align=center;fontSize=12;outlineConnect=0;spacingTop=-6;fontColor=#FFFFFF;sketch=0;shape=mxgraph.sitemap.user;" vertex="1" parent="1">
          <mxGeometry x="90" y="590" width="130" height="80" as="geometry" />
        </mxCell>
        <mxCell id="Y_ei04VsI1s3eIdMdrZa-37" value="User Browser" style="text;html=1;align=center;verticalAlign=middle;whiteSpace=wrap;rounded=0;" vertex="1" parent="1">
          <mxGeometry x="180" y="680" width="60" height="30" as="geometry" />
        </mxCell>
      </root>
    </mxGraphModel>
  </diagram>
</mxfile>
